<svg width="109" height="66" viewBox="0 0 109 66" fill="none" xmlns="http://www.w3.org/2000/svg">
<g clip-path="url(#clip0_122_2264)">
<path d="M15.697 15.0743H8.42172V12.3616H15.0173V10.2843H8.42172V7.90529H15.3484V5.82629H5.8916V17.1533H15.3804L15.697 15.0743Z" fill="white"/>
<path d="M30.4506 14.5834H36.1441L37.2669 17.1533H39.9393L34.7687 5.82788H31.906L26.7354 17.1533H29.3438L30.4506 14.5834ZM33.2974 8.032L35.2901 12.5686H31.3046L33.2974 8.032Z" fill="white"/>
<path d="M48.3535 7.93577H52.782V17.1533H55.3122V7.93577H59.7407V5.82629H48.3535V7.93577Z" fill="white"/>
<path d="M10.6992 38.7534C12.903 38.7534 14.6031 38.2609 15.7994 37.2775C16.9957 36.2942 17.5938 34.8986 17.5938 33.0891C17.5938 31.2796 17.0261 29.8455 15.8937 28.8782C14.7598 27.9108 13.1125 27.4264 10.9518 27.4264H5.8916V38.7518H10.6992V38.7534ZM8.40413 36.6439V29.5375H11.0302C13.6659 29.5375 14.9837 30.7165 14.9837 33.0746C14.9837 34.2489 14.6335 35.1376 13.9314 35.7392C13.2293 36.3423 12.1897 36.6439 10.8079 36.6439H8.40413Z" fill="white"/>
<path d="M37.754 32.8677C38.1074 32.3608 38.2834 31.7255 38.2834 30.9636C38.2834 28.6055 36.7064 27.4264 33.5542 27.4264H28.0029V38.7518H30.4387V34.5168H33.7445L36.2122 38.7518H38.9791L36.1323 34.058C36.86 33.7725 37.4005 33.3762 37.754 32.8677ZM35.2079 32.1763C34.8128 32.4378 34.1987 32.5661 33.3654 32.5661H30.4403V29.3771H33.3974C34.2515 29.3771 34.8656 29.499 35.2398 29.7428C35.6141 29.9866 35.8012 30.3877 35.8012 30.9475C35.8012 31.5074 35.6029 31.918 35.2079 32.1763Z" fill="white"/>
<path d="M55.0438 27.428H52.5137V38.7534H55.0438V27.428Z" fill="white"/>
<path d="M72.5672 30.8384L79.0989 38.7534H81.4083V27.428H78.9885V35.3429L72.4569 27.428H70.1475V38.7534H72.5672V30.8384Z" fill="white"/>
<path d="M94.8426 34.7077L96.8194 33.0425L101.026 38.7534H103.952L98.6074 31.5523L103.477 27.428H100.41L94.8426 32.1234V27.428H92.3125V38.7534H94.8426V34.7077Z" fill="white"/>
<path d="M30.3731 55.913H33.1719C34.8368 55.913 36.0763 55.6034 36.8888 54.9858C37.7012 54.3666 38.1058 53.4234 38.1058 52.1545C38.1058 49.6696 36.5241 48.4264 33.3623 48.4264H27.875V59.7518H30.3731V55.913ZM30.3731 50.4091H33.1879C34.0308 50.4091 34.6433 50.5471 35.0224 50.8214C35.4014 51.0973 35.5917 51.5353 35.5917 52.1384C35.5917 52.7416 35.3966 53.2036 35.0064 53.4939C34.6161 53.7843 33.9988 53.9303 33.156 53.9303H30.3731V50.4091Z" fill="white"/>
<path d="M59.5983 57.6423H52.702V48.4264H50.1719V59.7518H59.2816L59.5983 57.6423Z" fill="white"/>
<path d="M74.0371 57.1819H79.7307L80.8534 59.7518H83.5259L78.3553 48.4264H75.4909L70.3203 59.7518H72.9304L74.0371 57.1819ZM76.8839 50.6305L78.8767 55.1671H74.8912L76.8839 50.6305Z" fill="white"/>
<path d="M96.5897 59.7518H99.1198V55.2312L103.895 48.4264H101.159L97.8851 53.1843L94.6433 48.4264H91.8125L96.5897 55.2312V59.7518Z" fill="white"/>
<path d="M0 0V66H109V0H0ZM44.2004 1.0042H64.7996V21.6658H44.2004V1.0042ZM21.6004 64.9958H1.00117V44.3342H21.6004V64.9958ZM21.6004 43.3316H1.00117V22.67H21.6004V43.3316ZM21.6004 21.6658H1.00117V1.0042H21.6004V21.6658ZM22.6 22.6684H43.1992V43.33H22.6V22.6684ZM43.2008 64.9958H22.6016V44.3342H43.2008V64.9958ZM43.2008 21.6658H22.6016V1.0042H43.2008V21.6658ZM64.7996 64.9958H44.2004V44.3342H64.7996V64.9958ZM64.8012 43.33H44.202V22.6684H64.8012V43.33ZM86.4 64.9958H65.8008V44.3342H86.4V64.9958ZM86.4 43.3316H65.8008V22.67H86.4V43.3316ZM108 64.9974H87.4012V44.3358H108V64.9974ZM108 43.33H87.4012V22.6684H108V43.33ZM108 21.6658H65.8008V1.0042H108V21.6658Z" fill="white"/>
<path d="M6.61459 57.2205L7.37586 53.324L8.12274 57.2205H9.27265L10.3602 51.6556H9.25666L8.64252 55.6773L7.90524 51.6797H6.88647L6.13319 55.6773L5.51265 51.6556H4.36914L5.48067 57.2205H6.61459Z" fill="white"/>
<path d="M13.8488 56.2387H11.8992V51.6556H10.8037V57.2205H13.7321L13.8488 56.2387Z" fill="white"/>
<path d="M16.1415 57.3615C16.8564 57.3615 17.4258 57.1594 17.9599 56.7536V54.1741H16.1479V55.0788H16.9412V56.1937C16.7189 56.3188 16.4726 56.3814 16.2039 56.3814C15.8248 56.3814 15.5514 56.2274 15.3802 55.9178C15.2091 55.6082 15.1243 55.1141 15.1243 54.4339C15.1243 53.7538 15.1995 53.2677 15.3498 52.9613C15.5002 52.6549 15.7401 52.5009 16.0727 52.5009C16.2854 52.5009 16.4534 52.5715 16.5781 52.7111C16.7029 52.8506 16.7924 53.0688 16.85 53.3656L17.9375 53.2324C17.8496 52.6549 17.6545 52.2266 17.3506 51.9427C17.0483 51.6603 16.6341 51.5176 16.1111 51.5176C15.417 51.5176 14.8892 51.7662 14.5262 52.2651C14.1631 52.764 13.9824 53.4939 13.9824 54.4548C13.9824 55.4157 14.1631 56.1344 14.5262 56.6252C14.8892 57.1161 15.4266 57.3615 16.1415 57.3615Z" fill="white"/>
</g>
<defs>
<clipPath id="clip0_122_2264">
<rect width="109" height="66" fill="white"/>
</clipPath>
</defs>
</svg>
