<?xml version="1.0" encoding="UTF-8"?>
<svg id="Layer_2" data-name="Layer 2" xmlns="http://www.w3.org/2000/svg" xmlns:xlink="http://www.w3.org/1999/xlink" viewBox="0 0 621.03 709.72">
  <defs>
    <style>
      .cls-1 {
        fill: #fff;
      }
    </style>
  </defs>
  <g id="Layer_1-2" data-name="Layer 1">
    <g>
      <g>
        <path class="cls-1" d="M62.55,168.24l.06-80.7c.31-9.09-6.45-15.59-15.4-15.96-5.17-.21-9.58,1.21-14.03,4.44-7.1-5.47-17.37-6.23-24.6-.58-4.08,3.19-5.6,8.82-5.52,14.01v79.76s-3.06,5.14-3.06,5.14l8.97-.44c2.03-.1,4.65-4.39,4.65-6.7l.08-81.53c0-3.71,4.81-5.44,7.35-5.25,2.99.22,6.53,2.28,6.52,6.13l-.18,87.73,10.82-.28.2-88.02c.28-3.58,5.56-6.5,7.98-5.85,3.15.85,5.81,3.57,5.82,7.36l.22,82.12c.89,5.11,10.16,5.75,12.51,4.07l-2.37-5.45h0ZM9.81,85.51l-.06,36.75-.1,47.17-1.77,1.31c-.37.28-1.81-.03-1.65-.46l.79-2.25c1.08-15.3,1.45-30.34-.36-45.84l.99-33.69c.43-14.55,11.37-13.29,11.32-13.52l.54,2.61c-5.15-.62-9.68,2.61-9.69,7.92ZM44.08,77.5c-5.62-.04-10.55,4.27-10.51,10.08l.19,27.84-.08,7.81-.35,47.98-1.89.02.14-82.7c.02-12.01-10.07-10.7-10.06-11.36l.05-1.96c.02-1.04,7.82.02,11.43,7.7,2.01-4.62,5.76-7.8,11.25-7.95l-.18,2.55h0ZM56.12,166.37l-.2-42.4v-7.96s.08-31.26.08-31.26c.02-7.22-9.87-7.36-9.87-7.59l.02-1.98c.01-1.5,11.72,1.16,11.84,10.31l.4,30.33-.05,9.14-.27,39.38.65,7.05c-1.4-1.13-2.61-3.1-2.62-5.02"/>
        <path class="cls-1" d="M147.5,167.16l-.08-79.66c0-9.84-8.26-16.09-17.81-15.94-7.85.13-17.34,5.04-17.37,14.04l-.23,79.63c0,3.44-1.23,5.57-3.26,8.97l7.5-.07c2.29-.02,6.09-3.47,6.09-6.26l.04-31.44,14.45-7.79.27,36.49c.02,2.59,1.25,7.42,3.91,8.24,2.96.91,6.44.96,9.45.92-1.3-2.28-2.97-4.87-2.97-7.12M130.14,80.36c4.36.31,6.84,3.4,6.86,8.02l.14,33.11-14.68,8.62-.03-42.69c0-4.64,4.03-7.33,7.71-7.07M129.22,130.21c-3.59,2.25-6.6,3.65-10.82,5.25l-.3,33.49-1.05,1.8c-.27.46-2.05.12-1.9-.38l.77-2.49.15-43.04c-.63-3.67-.35-7.06-.3-10.78l.42-27.35c.11-7.06,5.64-11.85,12.4-11.86l-.12,2.78c-4.6-.83-9.61,2.3-10.09,7.56-1.01,11.11-.28,22.5-.09,33.91l.24,14.71c7.54-2.97,12.47-6.03,19.29-10.12-1.32,4.03-5.51,4.57-8.62,6.51M143.09,170.29l-2-1.82-.15-51.91-.39-32.03c-.06-4.66-6.28-7.29-9.57-6.92-.48.05-1.49-1.98-.99-2.15,5.81-2.02,13.62,4.61,13.24,14.14l.21,78.11,1.04,1.92c.19.34-1.11.94-1.39.68"/>
        <path class="cls-1" d="M237.57,80.19l.02-8.63h-43.29s.01,8.55.01,8.55l16.53.28v86.26c.01,2.27-1.53,5-2.79,7.02l14.86.12c-.91-2.46-1.96-4.86-1.96-6.04l.14-87.33,16.47-.23h0ZM199.22,77.23l-1.63-.87c-.31-.16-.43-1.42-.1-1.51.5-.12,1.59-.28,2.19-.22l13.76,1.41c-4.32,1.39-8.98,1.16-14.22,1.18M217.19,114.48l-.04,9.49-.34,46.71h-1.78s-.33-46.21-.33-46.21l-.05-9.99.2-35.32v-6.12s2.82,1.89,2.82,1.89l17.92,1.14c-6.67,1.74-12.12.96-18.67.87l.31,37.54h0Z"/>
        <path class="cls-1" d="M320.17,167.16l-.08-79.66c0-9.84-8.26-16.09-17.81-15.94-7.85.13-17.34,5.04-17.37,14.04l-.23,79.63c0,3.44-1.23,5.57-3.26,8.97l7.5-.07c2.29-.02,6.09-3.47,6.09-6.26l.04-31.44,14.45-7.79.27,36.49c.02,2.59,1.25,7.42,3.91,8.24,2.96.91,6.44.96,9.45.92-1.3-2.28-2.97-4.87-2.97-7.12M302.81,80.36c4.36.31,6.84,3.4,6.86,8.02l.14,33.11-14.68,8.62-.03-42.69c0-4.64,4.03-7.33,7.71-7.07M301.89,130.21c-3.59,2.25-6.6,3.65-10.82,5.25l-.3,33.49-1.05,1.8c-.27.46-2.05.12-1.9-.38l.77-2.49.15-43.04c-.63-3.67-.35-7.06-.3-10.78l.42-27.35c.11-7.06,5.64-11.85,12.4-11.86l-.12,2.78c-4.6-.83-9.61,2.3-10.09,7.56-1.01,11.11-.28,22.5-.09,33.91l.24,14.71c7.54-2.97,12.47-6.03,19.29-10.12-1.32,4.03-5.51,4.57-8.62,6.51M315.75,170.29l-2-1.82-.15-51.91-.39-32.03c-.06-4.66-6.28-7.29-9.57-6.92-.48.05-1.49-1.98-.99-2.15,5.81-2.02,13.62,4.61,13.24,14.14l.21,78.11,1.04,1.92c.19.34-1.11.94-1.39.68"/>
        <path class="cls-1" d="M408.42,168.23l2.21,4.35-4.92,4.01c-2.13-3.6-3.75-7.15-3.77-10.92l-.26-37.87c-.04-5.72-3.02-9.92-8.7-12.78,6.38-3.11,8.99-8.35,8.83-14.75l-.41-17.66c-.15-6.54-7.78-10.31-13.45-10.92-6.22-.66-11.44,1.27-15.78,5.18l-3.77-3.88c-.22,2.43.59,4.19,2.08,6.19-.36,1.22-1.38,4.5-1.38,6.29l.07,79.85c0,1.72-1.17,4.26-2.21,6.4l11.97.19v-85.34c0-3.48,2.88-6.07,5.75-6.84,2.19-.58,5.87,1.73,7.35,3.35.7.76,3.32-1.12,2.77-1.88l-1.98-2.71-7.76-2.61c6.75-3.35,12.88,3.27,12.88,9.39v16.01c0,6.21-3.05,10.45-9.23,13.81,6.07,3,9.29,8.01,9.32,14.26l.17,37.05c.02,5.32,3.68,8.84,7.45,12.69-5.77-.92-9.44-6.71-9.48-12.44l-.29-36.83c-.05-7.21-3.33-11.97-10.94-14.86,6.99-2.93,10.5-6.54,10.97-12.66l-.2-17.8-3.49.74-.16,15.96c-.07,7.14-4.6,10.86-11.37,13.2,4.22,3.73,11.32,4.08,11.36,13.42l.15,35.28c.02,4.77,1.89,10.02,4.61,13.71,5.23,7.12,15.42,8.36,21.25,3.29-2.28-5.33-4.27-10.29-9.69-11.86M385.2,76.19c-7.59,1.1-10.2,4.64-10.2,11.3v80.98c-2.29.47-3.27-.97-1.92-2.17l-.12-43.35-.27-7.83.2-7.92.55-23.3c.13-5.36,5.92-11.58,11.76-7.7ZM408.06,177.98l4.51-4.43c.7.88,2.19,3.99,1.9,4.96-.68,2.31-5.45,2.08-6.41-.54Z"/>
        <path class="cls-1" d="M462.11,173.88l14.89.07c-1-2.36-2.18-4.77-2.18-5.97v-89.7c.01-2.04,1.25-4.59,2.17-6.73l-15.07.1c1.21,2.4,2.51,4.86,2.51,6.63l-.06,88.68c0,2.12-1.3,4.92-2.26,6.92M470.86,75.53v45.98s.07,48.18.07,48.18l-2.46.93c-.51.19-.05-1.67.33-2.78l-.13-43.14-.1-9.28v-36.41s-.51-3.22-.51-3.22c-.1-.63,1.91-.46,2.8-.26Z"/>
        <path class="cls-1" d="M560.42,71.57c-.84,2.41-1.91,5.42-1.91,7.57l-.04,17.93c-.01,6.47-3.81,11.19-9.25,15.14,4.95,2.46,9.14,7.36,9.17,13.4l.17,41.28c0,2.01,1.84,4.46,3.57,7.16l-8.66-.37c-1.85-.08-4.59-3.93-5.05-5.64l-.06-41.05c-2-12.96-9.18-11.11-13.28-13.19-.92-.47-.28-3.72.58-4.33,6.67-1.12,12.73-7.03,12.72-14.46l-.03-23.43,12.08-.02ZM533.7,109.79l-1.44,2.04c-.35.5.66,1.54,1.38,2.36l.04,59.78-12.6-.08c1.3-2.82,2.21-5.71,2.21-8.94l-.03-86.64c0-1.82-1.23-4.21-2.43-6.64l12.85-.1.02,38.23ZM552.51,75.62l-.14,19.4c-.06,8.97-6.34,14.38-15.1,17.19,7.52.76,15,5.96,15.03,14.46l.13,39.42c0,1.74,1.45,4.06,2.59,4.91l-.56-9.98-.15-34.35c-.03-6.72-4.56-11.49-10.54-14.9,6.4-3.44,10.57-8.74,10.59-15.72l.05-21.62-1.89,1.2ZM528.21,75.17c-.33-.48-1.76,1.19-1.48,1.68l1.07,1.85-.38,37.64c-.4,2.73.16,5.54.17,8.35l.08,43.21c0,.8-.98,3.18-.43,3l1.68-.54c.37-.12.55-.77.89-1.61h0s.02-91.24.02-91.24l-1.63-2.35Z"/>
        <path class="cls-1" d="M606.15,173.88l14.89.07c-1-2.36-2.18-4.77-2.18-5.97v-89.7c.01-2.04,1.25-4.59,2.17-6.73l-15.07.1c1.21,2.4,2.51,4.86,2.51,6.63l-.06,88.68c0,2.12-1.3,4.92-2.26,6.92M614.89,75.53v45.98s.07,48.18.07,48.18l-2.46.93c-.51.19-.05-1.67.33-2.78l-.13-43.14-.1-9.28v-36.41s-.51-3.22-.51-3.22c-.1-.63,1.91-.46,2.8-.26"/>
      </g>
      <image width="2478" height="3486" transform="translate(65.35) scale(.2)" xlink:href="../../../Exported Assets/Rectangle 1.png"/>
      <g>
        <path class="cls-1" d="M163.41,597.74l.02-74.07c0-8.03-6.48-13.24-14.08-13.59-6.33-.3-14.35,1.9-16.22,8.74-2.02,7.42-.94,15.62-.97,23.4l-.09,31.99-.23,22.73c-.02,1.9-1.02,4.22-2.07,6.2l11.6-.07.02-79.4c0-3.02,3.68-5.57,5.77-5.7,2.54-.16,6.73,1.32,6.73,5.21l.12,73.38c0,3.73,3.55,6.68,6.83,6.61l5.51-.11c-1.09-1.41-2.95-3.75-2.95-5.33ZM146.99,514.3c-1.4,2.16-9.5.09-9.37,11.89l.32,30.5-.25,43.14c-.48.26-2.71.62-2.55.13l.83-2.61-.03-39.73c-.72-2.64-.32-4.86-.29-7.5l.31-25.72c.07-5.56,3.05-9.92,8.63-11.12l1.64-.35c.36-.08.96,1.07.76,1.39M159.52,600.15c-1.18-1.88-2.07-3.79-2.07-5.19v-73.13c0-6.19-9-6.76-9-6.8l.03-1.75c.02-1.21,10.65,1.18,10.73,8.39l.31,25.99-.05,11.61-.06,36.04.11,4.83h0Z"/>
        <path class="cls-1" d="M206.76,599.69l12.6.06c-.84-2.07-1.85-4.18-1.85-5.23v-78.58c.01-1.79,1.06-4.02,1.84-5.89l-12.76.08c1.02,2.1,2.13,4.26,2.13,5.81l-.05,77.68c0,1.86-1.1,4.31-1.91,6.07ZM214.16,513.53v40.27s.07,42.21.07,42.21l-2.08.81c-.43.17-.04-1.47.28-2.44l-.11-37.79-.09-8.13v-31.9s-.43-2.82-.43-2.82c-.08-.55,1.61-.4,2.37-.22"/>
        <path class="cls-1" d="M287.03,553.31l-11.65-.87.02,7.86,6.31.12-.23,30.18c-.02,2.78-3.66,4.56-5.76,4.76-1.96.19-6.51-1.14-6.51-4.19l-.04-68.23c0-3.13,4.42-5.06,6.57-4.95,2,.11,5.71,2.28,5.66,4.7l-.31,16.02c3.07.96,7.32,1.15,10.24.8l-.79-17.71c-.35-8.02-8.56-12.16-16.17-11.7-7.21.43-14.64,5.06-14.65,13.02l-.14,65.48c-.02,9.8,7.72,15.79,17.17,15.08,8.81-.66,14.18-6.78,14.22-15.54l.12-27.95c0-2.03-1.93-6.71-4.05-6.87M276.44,512.99c5.1.59,10.3,4.04,10.37,9.86l.13,12.01c0,.33-.51,1.6-.65,1.89-.15.29-1.54.35-1.53.03l.09-1.95.45-9.45c.26-5.53-3.1-10.11-8.99-9.9l.13-2.49h0ZM277.05,556.66l7.88-1.22c.43.2,1.67.79,1.7,1.13l.19,1.99-9.78-1.91ZM286.65,592.2c-.05,6.68-8.16,8.99-13.66,8.01-4.16-.74-8.97-3.04-9.05-8.09l-.54-33.56v-9.13s.33-25.94.33-25.94c.08-5.97,6.15-12.1,11.97-9.44l-7.67,3.68c-2.12,1.02-2.58,5.04-2.57,7.64l.3,65.94c.03,6.09,8.64,8.04,13.11,6.68,2.97-.91,6.17-3.29,6.19-6.73l.18-30.66,1.67-.42-.25,32.01h0Z"/>
        <path class="cls-1" d="M366.41,593.97l.03-79.34,2.6-4.56-11.64.05-.24,34.8-13.97,7.5v-42.35s-11.56,0-11.56,0c1.94,3.05,2.28,5.99,2.29,9.72l.15,75.91c0,2.51-1.27,5.02-2.5,7.33l11.58-.08v-44.57s5.76-3.37,5.76-3.37l6.79-4.06c.13-.08.21-.22.56-.71.4,1.44,1.06,4.28,1.06,6.17v40.27c0,3.75,2.66,6.38,6.37,6.41l5.61.04c-2.06-3.45-2.87-5.58-2.87-9.17M339.64,556.75l-.1,41.92-1.34,1.48c-.23.25-1.53-.13-1.38-.45l.89-1.83-.07-41.21c-.64-2.48-.02-4.93-.01-7.42l.14-33.62c-1.89-1.51-.27-2.84,1.72-1.68l.13,41.26,10.03-3.13c-2.97,2.49-6,3.43-10,4.67M355.84,549.74l-.72.3-2.09-.24,5.75-4.07.77.78-3.72,3.22ZM362.53,600.19l-1.67-1.91-.13-41.62-.17-9.69.24-32.39.97-1.59c.25-.4,1.86-.05,1.72.4l-.68,2.24.02,81.53.98,1.77c.24.43-.96,1.65-1.29,1.28"/>
        <path class="cls-1" d="M448.79,517.9l.02-7.83h-39.3s.01,7.76.01,7.76l15.01.25v78.3c.01,2.06-1.39,4.54-2.53,6.37l13.49.11c-.82-2.23-1.78-4.41-1.77-5.48l.13-79.27,14.95-.21h0ZM413.98,515.21l-1.48-.79c-.28-.15-.39-1.29-.09-1.37.46-.11,1.44-.25,1.99-.2l12.49,1.28c-3.92,1.27-8.15,1.05-12.9,1.07M430.3,549.02l-.04,8.61-.31,42.4h-1.61s-.3-41.95-.3-41.95l-.05-9.07.18-32.06v-5.56s2.56,1.71,2.56,1.71l16.26,1.04c-6.06,1.58-11,.87-16.95.79l.28,34.08h0Z"/>
        <path class="cls-1" d="M515.3,556.4l-10.39-7.66c-2.67-1.97-4.84-5.3-4.85-8.73l-.04-16.22c0-2.84,3.36-5.39,5.63-5.68,2.53-.32,6.5,1.59,6.52,4.64l.07,15.34c0,1.31,2.09,3.59,3.33,3.55l6.76-.23-.5-17.7c-.23-8.34-6.72-13.54-15.01-13.64-7.08-.09-15.55,3.92-15.7,11.84l-.36,18.79c-.08,3.85,1.24,9.27,4.35,11.54l10.51,7.67c2.64,1.93,6.61,5.53,6.61,9.17l.02,21.51c0,3.01-4.14,4.89-6.65,4.7-1.93-.14-5.47-2.57-5.43-5.06l.31-19.39c.03-2.01-2.18-3.59-4.02-3.65l-7.41-.23,1.65,3.39.2,20.22c.08,8.28,7.29,13.19,15.58,13.01,8.6-.19,15.38-5.73,15.38-14.1v-20.18c0-4.94-2.7-10.07-6.56-12.91M507.26,513.58c.07-1.47,8.39.12,10.6,8.14l-.89,17.75c-3.18-6.58,1.37-16.88-3.01-21.58-1.43-1.54-4.39-2.32-6.78-2.68l.08-1.64ZM517.81,587.02c.1,4.36-.44,8.82-4.22,11.34-3.14,2.1-7.06,2.83-11.32,1.56-3.49-1.04-7.04-3.79-7.41-8-.62-6.91-1.18-13.89.62-21.58l1.21,20.59c.25,4.31,3.74,6.11,7.32,7.25,5.44,1.74,11.82-2.45,11.84-7.69l.07-20.62c0-2.91-1.42-7.74-3.74-9.36l-9.55-6.69c-5.23-3.67-8.35-8.51-8.25-15.08l.23-15.16c.09-6.01,6.03-12.55,12.02-9.35-6.36,1.65-9.87,3.98-10.08,9.84-.24,6.67-.67,13.39.49,20.09,1.48,8.56,18.71,11.9,20.28,22.46l.48,20.36h0Z"/>
      </g>
      <image width="1915" height="1969" transform="translate(123.11 163.56) scale(.2)" xlink:href="../../../Exported Assets/04b2dc375ca3a2796feff36ca44aa80d.png"/>
    </g>
  </g>
</svg>