<svg width="1262" height="227" viewBox="0 0 1262 227" fill="none" xmlns="http://www.w3.org/2000/svg">
<g clip-path="url(#clip0_110_2350)">
<path d="M127.02 196.342L127.15 32.4721C127.78 14.0121 114.06 0.822085 95.88 0.0720847C85.39 -0.357915 76.43 2.52208 67.38 9.09208C52.97 -2.01791 32.11 -3.56791 17.42 7.91208C9.14 14.3821 6.04 25.8321 6.21 36.3521V198.322L0 208.752L18.21 207.862C22.33 207.662 27.65 198.942 27.66 194.262L27.82 28.6921C27.82 21.1621 37.59 17.6421 42.74 18.0221C48.82 18.4721 56 22.6421 55.98 30.4621L55.61 208.622L77.59 208.052L77.99 29.3221C78.55 22.0521 89.29 16.1321 94.19 17.4521C100.59 19.1721 105.98 24.6921 106 32.3921L106.44 199.142C108.24 209.512 127.08 210.812 131.84 207.412L127.03 196.342H127.02ZM19.93 28.3321L19.81 102.962L19.61 198.742L16.01 201.402C15.25 201.962 12.34 201.342 12.65 200.462L14.25 195.902C16.44 164.842 17.2 134.292 13.51 102.822L15.52 34.4121C16.39 4.87208 38.6 7.42208 38.5 6.95208L39.6 12.2421C29.15 10.9921 19.95 17.5321 19.93 28.3321ZM89.52 12.0721C78.1 11.9821 68.1 20.7421 68.18 32.5321L68.57 89.0621L68.41 104.912L67.69 202.342L63.86 202.382L64.14 34.4521C64.18 10.0721 43.69 12.7221 43.72 11.3921L43.82 7.42208C43.87 5.30208 59.7 7.46208 67.04 23.0521C71.13 13.6621 78.74 7.22208 89.89 6.90208L89.52 12.0821V12.0721ZM113.97 192.542L113.57 106.432L113.55 90.2721L113.74 26.7921C113.79 12.1221 93.7 11.8421 93.7 11.3821L93.74 7.35208C93.77 4.31208 117.53 9.70209 117.78 28.2821L118.6 89.8721L118.49 108.442L117.94 188.412L119.27 202.732C116.43 200.442 113.96 196.442 113.94 192.542" fill="white"/>
<path d="M299.53 194.136L299.36 32.3659C299.34 12.3859 282.59 -0.314091 263.2 0.00590931C247.25 0.265909 227.98 10.2359 227.93 28.5159L227.47 190.216C227.45 197.206 224.97 201.536 220.84 208.426L236.08 208.286C240.73 208.246 248.45 201.246 248.45 195.576L248.54 131.736L277.89 115.916L278.43 190.016C278.47 195.276 280.96 205.086 286.37 206.746C292.39 208.586 299.44 208.686 305.56 208.606C302.93 203.966 299.53 198.726 299.52 194.146M264.27 17.8859C273.13 18.5159 278.16 24.7859 278.2 34.1759L278.49 101.416L248.68 118.916L248.62 32.2259C248.62 22.7959 256.81 17.3459 264.27 17.8759M262.41 119.106C255.12 123.666 249.01 126.516 240.43 129.776L239.83 197.786L237.7 201.446C237.16 202.376 233.54 201.696 233.85 200.676L235.41 195.616L235.72 108.216C234.45 100.756 235 93.8759 235.11 86.3259L235.96 30.7959C236.18 16.4659 247.42 6.73592 261.14 6.70592L260.9 12.3459C251.56 10.6559 241.39 17.0159 240.42 27.6959C238.36 50.2659 239.86 73.3959 240.24 96.5459L240.73 126.426C256.05 120.386 266.06 114.186 279.91 105.876C277.22 114.056 268.73 115.146 262.41 119.096M290.56 200.496L286.49 196.796L286.19 91.3859L285.39 26.3459C285.27 16.8859 272.63 11.5459 265.96 12.2859C264.98 12.3959 262.93 8.26591 263.95 7.91591C275.75 3.81591 291.6 17.2859 290.84 36.6259L291.27 195.236L293.39 199.126C293.77 199.816 291.14 201.026 290.56 200.506" fill="white"/>
<path d="M482.42 17.54L482.47 0.0200195L394.56 0L394.59 17.39L428.16 17.95L428.19 193.11C428.19 197.71 425.05 203.27 422.5 207.36L452.67 207.61C450.83 202.61 448.69 197.74 448.7 195.35L448.98 18.01L482.43 17.55L482.42 17.54ZM404.55 11.53L401.23 9.76001C400.61 9.43001 400.35 6.87001 401.03 6.70001C402.05 6.45001 404.26 6.13001 405.48 6.26001L433.43 9.13C424.66 11.96 415.2 11.48 404.56 11.52M441.05 87.17L440.96 106.44L440.26 201.29H436.65L435.97 107.45L435.86 87.16L436.26 15.44L436.24 3.01001L441.99 6.84003L478.37 9.16003C464.82 12.7 453.76 11.1001 440.45 10.9301L441.07 87.17H441.05Z" fill="white"/>
<path d="M650.16 194.136L649.99 32.3659C649.97 12.3859 633.22 -0.314091 613.83 0.00590932C597.88 0.265909 578.61 10.2359 578.56 28.5159L578.1 190.216C578.08 197.206 575.6 201.536 571.47 208.426L586.71 208.286C591.36 208.246 599.08 201.246 599.08 195.576L599.17 131.736L628.52 115.916L629.06 190.016C629.1 195.276 631.59 205.086 637 206.746C643.02 208.586 650.07 208.686 656.19 208.606C653.56 203.966 650.16 198.726 650.15 194.146M614.9 17.8859C623.76 18.5159 628.79 24.7859 628.83 34.1759L629.12 101.416L599.31 118.916L599.25 32.2259C599.25 22.7959 607.44 17.3459 614.9 17.8759M613.04 119.106C605.75 123.666 599.64 126.516 591.06 129.776L590.46 197.786L588.33 201.446C587.79 202.376 584.17 201.696 584.48 200.676L586.04 195.616L586.35 108.216C585.08 100.756 585.63 93.8759 585.74 86.3259L586.59 30.7959C586.81 16.4659 598.05 6.73592 611.77 6.70592L611.53 12.3459C602.19 10.6559 592.02 17.0159 591.05 27.6959C588.99 50.2659 590.49 73.3959 590.87 96.5459L591.36 126.426C606.68 120.386 616.69 114.186 630.54 105.876C627.85 114.056 619.36 115.146 613.04 119.096M641.19 200.496L637.12 196.796L636.82 91.3859L636.02 26.3459C635.9 16.8859 623.26 11.5459 616.59 12.2859C615.61 12.3959 613.56 8.26588 614.58 7.91588C626.38 3.81588 642.23 17.2859 641.47 36.6259L641.9 195.236L644.02 199.126C644.4 199.816 641.77 201.026 641.19 200.506" fill="white"/>
<path d="M829.359 196.312L833.849 205.142L823.859 213.292C819.539 205.972 816.249 198.782 816.199 191.112L815.679 114.202C815.599 102.592 809.539 94.0522 798.019 88.2422C810.969 81.9322 816.269 71.2921 815.959 58.2921L815.119 22.4321C814.809 9.1421 799.329 1.50206 787.809 0.262057C775.179 -1.08794 764.569 2.83207 755.769 10.7721L748.119 2.89206C747.669 7.82206 749.319 11.4021 752.339 15.4621C751.609 17.9321 749.529 24.5921 749.529 28.2321L749.669 190.372C749.669 193.872 747.289 199.032 745.189 203.372L769.499 203.752V30.4621C769.499 23.3921 775.339 18.1321 781.169 16.5821C785.619 15.4021 793.079 20.1021 796.099 23.3821C797.529 24.9321 802.849 21.1021 801.729 19.5621L797.709 14.0621L781.959 8.75217C795.659 1.94217 808.109 15.4021 808.109 27.8221L808.129 60.3321C808.129 72.9421 801.909 81.5622 789.369 88.3722C801.689 94.4622 808.239 104.642 808.299 117.332L808.649 192.572C808.699 203.372 816.129 210.522 823.769 218.332C812.059 216.462 804.609 204.712 804.519 193.062L803.939 118.272C803.829 103.622 797.179 93.9721 781.729 88.1021C795.919 82.1521 803.059 74.8221 804.009 62.3921L803.609 26.2522L796.529 27.7522L796.209 60.1521C796.069 74.6521 786.859 82.2021 773.119 86.9521C781.679 94.5321 796.099 95.2421 796.179 114.212L796.489 185.852C796.529 195.532 800.329 206.202 805.849 213.702C816.469 228.152 837.169 230.672 849.009 220.392C844.379 209.572 840.329 199.502 829.339 196.312M782.209 9.41208C766.799 11.6521 761.489 18.8321 761.489 32.3521L761.519 196.802C756.839 197.762 754.849 194.842 757.589 192.392L757.349 104.362L756.799 88.4521L757.209 72.3622L758.319 25.0521C758.579 14.1621 770.349 1.54208 782.209 9.41208ZM828.639 216.102L837.789 207.112C839.219 208.902 842.239 215.212 841.649 217.192C840.259 221.892 830.589 221.412 828.639 216.102Z" fill="white"/>
<path d="M938.4 207.79L968.63 207.93C966.6 203.13 964.2 198.24 964.2 195.81L964.23 13.66C964.23 9.52003 966.74 4.34 968.61 0L938.01 0.199951C940.46 5.06995 943.11 10.07 943.11 13.66L942.98 193.73C942.98 198.03 940.33 203.72 938.39 207.79M956.15 8.06995L956.12 101.43L956.3 199.27L951.31 201.16C950.27 201.55 951.2 197.76 951.99 195.51L951.72 107.91L951.51 89.0699L951.53 15.13L950.47 8.58997C950.26 7.31997 954.34 7.65995 956.15 8.06995Z" fill="white"/>
<path d="M1138.03 0.0195312C1136.32 4.9094 1134.16 11.0194 1134.15 15.3994L1134.06 51.8096C1134.03 64.9496 1126.32 74.5396 1115.28 82.5596C1125.33 87.5496 1133.85 97.5103 1133.9 109.78L1134.25 193.6C1134.26 197.69 1137.99 202.65 1141.49 208.14L1123.91 207.38C1120.15 207.21 1114.59 199.39 1113.65 195.93L1113.52 112.57C1109.45 86.2503 1094.88 90.01 1086.56 85.79C1084.69 84.8401 1085.99 78.2309 1087.73 76.9902C1101.27 74.7102 1113.58 62.7198 1113.56 47.6299L1113.5 0.0595703L1138.03 0.0195312ZM1083.76 77.6396L1080.84 81.7803C1080.13 82.7904 1082.18 84.9003 1083.65 86.5801L1083.73 207.97L1058.14 207.8C1060.78 202.08 1062.63 196.21 1062.63 189.64L1062.57 13.7002C1062.56 10.0002 1060.07 5.15989 1057.63 0.209961L1083.72 0L1083.76 77.6396ZM1121.96 8.25977L1121.68 47.6602C1121.55 65.8799 1108.81 76.8704 1091.02 82.5703C1106.29 84.1203 1121.48 94.6698 1121.54 111.93L1121.8 191.97C1121.81 195.51 1124.74 200.21 1127.06 201.95L1125.92 181.68L1125.61 111.93C1125.54 98.2897 1116.35 88.5999 1104.2 81.6699C1117.2 74.69 1125.67 63.93 1125.7 49.7402L1125.8 5.83008L1121.96 8.25977ZM1072.61 7.33984C1071.94 6.36984 1069.03 9.74977 1069.61 10.7598L1071.78 14.5195L1071.01 90.9502C1070.19 96.4999 1071.34 102.21 1071.35 107.899L1071.52 195.649C1071.52 197.279 1069.52 202.108 1070.65 201.75L1074.06 200.66C1074.81 200.42 1075.18 199.1 1075.87 197.39H1075.88L1075.93 12.1094L1072.61 7.33984Z" fill="white"/>
<path d="M1230.88 207.79L1261.11 207.93C1259.08 203.13 1256.68 198.24 1256.68 195.81L1256.71 13.6602C1256.71 9.52016 1259.22 4.34 1261.09 0L1230.49 0.200195C1232.94 5.0702 1235.59 10.0702 1235.59 13.6602L1235.46 193.73C1235.46 198.03 1232.81 203.72 1230.87 207.79M1248.63 8.07007L1248.6 101.43L1248.78 199.26L1243.79 201.15C1242.75 201.54 1243.68 197.75 1244.47 195.5L1244.2 107.9L1243.99 89.0601L1244.01 15.1201L1242.95 8.58008C1242.74 7.31008 1246.82 7.65006 1248.63 8.06006" fill="white"/>
</g>
<defs>
<clipPath id="clip0_110_2350">
<rect width="1261.11" height="226.642" fill="white"/>
</clipPath>
</defs>
</svg>
