<svg width="879" height="210" viewBox="0 0 879 210" fill="none" xmlns="http://www.w3.org/2000/svg">
<g clip-path="url(#clip0_124_2294)">
<path d="M75.23 196.168L75.28 30.4577C75.28 12.4977 60.79 0.847688 43.78 0.0576878C29.62 -0.602312 11.67 4.30769 7.5 19.6077C2.98 36.2077 5.39 54.5577 5.34 71.9677L5.13 143.538L4.62 194.398C4.58 198.658 2.33 203.838 0 208.258L25.94 208.108L25.98 30.4777C25.98 23.7177 34.21 18.0177 38.89 17.7277C44.57 17.3777 53.94 20.6777 53.95 29.3777L54.22 193.548C54.23 201.888 62.17 208.488 69.51 208.338L81.84 208.088C79.4 204.938 75.23 199.708 75.23 196.168ZM38.5 9.49769C35.37 14.3377 17.25 9.69769 17.53 36.0977L18.25 104.338L17.69 200.838C16.61 201.428 11.63 202.228 11.99 201.118L13.84 195.278L13.77 106.388C12.15 100.478 13.06 95.5177 13.13 89.6077L13.82 32.0677C13.97 19.6277 20.64 9.87769 33.13 7.18769L36.8 6.39769C37.61 6.21769 38.94 8.79769 38.49 9.49769M66.53 201.548C63.89 197.338 61.9 193.078 61.9 189.938V26.3377C61.92 12.4977 41.77 11.2177 41.77 11.1277L41.83 7.21769C41.87 4.51769 65.65 9.85769 65.84 25.9977L66.53 84.1377L66.42 110.118L66.28 190.748L66.53 201.558V201.548Z" fill="white"/>
<path d="M172.2 200.53L200.39 200.66C198.5 196.03 196.26 191.31 196.26 188.97L196.29 13.18C196.29 9.17999 198.63 4.19 200.38 0L171.84 0.189972C174.12 4.88997 176.6 9.70999 176.6 13.18L176.48 186.96C176.48 191.11 174.01 196.61 172.2 200.53ZM188.76 7.78L188.74 97.88L188.91 192.3L184.26 194.12C183.29 194.5 184.16 190.84 184.89 188.67L184.64 104.13L184.44 85.95L184.46 14.59L183.47 8.28C183.28 7.05 187.08 7.39 188.77 7.78" fill="white"/>
<path d="M351.79 96.7675L325.72 94.8175L325.77 112.397L339.88 112.667L339.37 180.188C339.32 186.398 331.19 190.397 326.49 190.837C322.11 191.257 311.93 188.278 311.93 181.458L311.85 28.8075C311.85 21.7975 321.74 17.4775 326.55 17.7375C331.03 17.9775 339.33 22.8375 339.22 28.2575L338.52 64.0975C345.39 66.2375 354.9 66.6675 361.42 65.8875L359.66 26.2575C358.87 8.30752 340.51 -0.952473 323.48 0.0775269C307.36 1.04753 290.73 11.3875 290.7 29.1975L290.39 175.678C290.34 197.598 307.65 210.997 328.8 209.417C348.51 207.947 360.53 194.247 360.61 174.657L360.87 112.128C360.89 107.578 356.55 97.1275 351.8 96.7675M328.09 6.55751C339.51 7.88751 351.13 15.5975 351.28 28.6075L351.58 55.4675C351.58 56.2075 350.45 59.0575 350.12 59.6975C349.79 60.3375 346.67 60.4775 346.7 59.7575L346.91 55.3875L347.91 34.2475C348.49 21.8675 340.97 11.6275 327.8 12.1075L328.09 6.5475V6.55751ZM329.47 104.268L347.1 101.548C348.07 101.988 350.83 103.307 350.91 104.087L351.34 108.537L329.47 104.268ZM350.93 183.777C350.82 198.717 332.67 203.888 320.38 201.688C311.08 200.028 300.31 194.887 300.13 183.587L298.92 108.518L298.9 88.0975L299.66 30.0675C299.84 16.7175 313.42 2.98753 326.44 8.95753L309.27 17.1975C304.52 19.4775 303.49 28.4675 303.52 34.2975L304.18 181.808C304.24 195.438 323.52 199.798 333.5 196.758C340.15 194.728 347.3 189.398 347.35 181.698L347.76 113.097L351.49 112.147L350.94 183.758L350.93 183.777Z" fill="white"/>
<path d="M529.38 187.72L529.45 10.23L535.26 0.0300293L509.21 0.140015L508.68 78L477.43 94.77V0.0200195L451.57 0C455.91 6.83 456.68 13.39 456.69 21.75L457.02 191.57C457.03 197.18 454.18 202.8 451.42 207.97L477.33 207.79V108.08L490.21 100.55L505.39 91.46C505.67 91.29 505.87 90.96 506.65 89.88C507.55 93.11 509.02 99.45 509.02 103.69L509 193.77C509 202.17 514.98 208.05 523.26 208.11L535.81 208.2C531.2 200.48 529.38 195.72 529.38 187.69M469.49 104.45L469.27 198.24L466.27 201.56C465.75 202.13 462.85 201.26 463.19 200.56L465.17 196.47L465.01 104.28C463.57 98.74 464.96 93.24 464.98 87.67L465.29 12.46C461.06 9.09002 464.69 6.11001 469.13 8.70001L469.43 101L491.87 93.9901C485.23 99.5501 478.44 101.67 469.5 104.44M505.73 88.78L504.12 89.46L499.45 88.9301L512.32 79.83L514.05 81.57L505.73 88.78ZM520.69 201.65L516.96 197.37L516.67 104.26L516.3 82.58L516.83 10.1201L519 6.56C519.55 5.66 523.16 6.44001 522.85 7.45001L521.33 12.47L521.38 194.86L523.57 198.81C524.11 199.78 521.43 202.51 520.69 201.67" fill="white"/>
<path d="M713.671 17.54L713.721 0.0200195L625.811 0L625.841 17.39L659.411 17.95L659.441 193.11C659.441 197.71 656.301 203.27 653.751 207.36L683.921 207.61C682.081 202.61 679.941 197.74 679.951 195.35L680.231 18.01L713.681 17.55L713.671 17.54ZM635.801 11.53L632.481 9.76001C631.861 9.43001 631.601 6.86995 632.281 6.69995C633.301 6.44995 635.511 6.13001 636.731 6.26001L664.681 9.13C655.911 11.96 646.451 11.48 635.811 11.52M672.301 87.17L672.211 106.44L671.511 201.3H667.901L667.221 107.46L667.111 87.17L667.511 15.45L667.491 3.02002L673.241 6.84998L709.621 9.17004C696.071 12.71 685.011 11.1099 671.701 10.9399L672.321 87.1799L672.301 87.17Z" fill="white"/>
<path d="M862.45 103.673L839.21 86.5332C833.23 82.1232 828.39 74.6833 828.37 66.9933L828.28 30.7032C828.26 24.3532 835.8 18.6533 840.87 18.0033C846.52 17.2833 855.42 21.5533 855.45 28.3733L855.61 62.6832C855.62 65.6032 860.29 70.7233 863.05 70.6233L878.18 70.1032L877.07 30.5133C876.55 11.8633 862.04 0.233269 843.48 0.00326856C827.64 -0.196731 808.69 8.78326 808.35 26.4933L807.54 68.5332C807.37 77.1432 810.31 89.2732 817.27 94.3532L840.78 111.523C846.69 115.833 855.56 123.903 855.57 132.033L855.61 180.163C855.61 186.893 846.35 191.103 840.73 190.683C836.42 190.363 828.5 184.923 828.59 179.353L829.29 135.983C829.36 131.483 824.42 127.943 820.3 127.813L803.72 127.293L807.41 134.883L807.86 180.123C808.05 198.643 824.17 209.633 842.72 209.223C861.97 208.803 877.12 196.413 877.12 177.673V132.533C877.13 121.483 871.07 110.003 862.45 103.643M844.47 7.87326C844.63 4.59326 863.25 8.14323 868.19 26.0932L866.19 65.8132C859.07 51.0832 869.26 28.0432 859.46 17.5332C856.25 14.0932 849.64 12.3332 844.29 11.5332L844.47 7.87326ZM868.07 172.183C868.3 181.943 867.08 191.913 858.64 197.563C851.62 202.263 842.84 203.903 833.31 201.063C825.5 198.743 817.57 192.593 816.73 183.173C815.35 167.713 814.09 152.103 818.12 134.903L820.82 180.973C821.38 190.613 829.19 194.643 837.19 197.203C849.35 201.103 863.64 191.723 863.68 180.003L863.83 133.883C863.85 127.363 860.66 116.563 855.47 112.933L834.1 97.9632C822.4 89.7632 815.43 78.9332 815.65 64.2332L816.16 30.3232C816.36 16.8832 829.66 2.24318 843.06 9.41318C828.84 13.1132 820.98 18.3232 820.52 31.4332C819.99 46.3532 819.02 61.3833 821.61 76.3833C824.91 95.5333 863.47 103.003 866.98 126.633L868.06 172.183H868.07Z" fill="white"/>
</g>
<defs>
<clipPath id="clip0_124_2294">
<rect width="878.18" height="209.543" fill="white"/>
</clipPath>
</defs>
</svg>
